<?xml version="1.0" encoding="UTF-8"?><svg id="a" xmlns="http://www.w3.org/2000/svg" viewBox="0 0 422.49 491.15"><defs><style>.b{fill:#fff;}</style></defs><path class="b" d="M158.49,0v164.62c0,.39-1.21,1.61-.77,2.69h137.37L296.25.02l126.25,118.56v371.83h-119.72l-.77-151.19h-146.58c.94-17-1.42-34.1-.8-51.07.06-1.63.69-3.02.8-4.58.11-1.46-1.74-3.41.5-4.1l184.45.65v-51.04l-184.24-.72c-2.12-1.48.01-17.47.08-20.74.21-10.26-.05-20.65,0-30.7.02-3.28.09-6.59-.19-9.85l-46.66-47.75-1.53.77v297.39l57.56-17.65-1.15,91.31L23.42,367.99V99.39l1.74-1.01c20.29,4.56,40.63,9.48,61.04,13.44,4.58.89,11.97,2.66,16.26,2.95,1.14.08,1.36.62,2.3-.81L0,1.54.78,0h157.71Z"/><path class="b" d="M91.72,490.4H24.57l-1.15-1.15v-61.01l2.72.73c15.28,13.88,30.39,27.94,45.62,41.87,5.87,5.38,13.94,10.88,18.82,17.25.59.77,1.48.97,1.15,2.31Z"/><polygon class="b" points="421.72 55.26 362.63 0 420.57 0 421.72 1.15 421.72 55.26"/></svg>