<?xml version="1.0" encoding="UTF-8"?><svg id="a" xmlns="http://www.w3.org/2000/svg" viewBox="0 0 104.31 23.13"><defs><style>.c{font-size:7.05px;}.c,.d{font-family:KumbhSans-Medium, 'Kumbh Sans';font-variation-settings:'YOPQ' 300, 'wght' 500;font-weight:500;}.c,.d,.e,.f{fill:#fff;}.g{isolation:isolate;}.h{mix-blend-mode:multiply;}.d{font-size:9.76px;}.i{letter-spacing:.19em;}.j{letter-spacing:.16em;}.k{opacity:.15;}.l{letter-spacing:-.03em;}.f{stroke:#fff;stroke-miterlimit:10;stroke-width:.1px;}</style></defs><g class="g"><g id="b"><g class="k"><path class="e" d="M18.92,19.19c.05.18.05.37,0,.54-.12.31-.36.55-.66.69-.31.14-.65.18-.98.13l-.39.09c-.13.04-.27.06-.41.09-.18.05-.37.06-.55.05h-.05l-.25.08c-.32.1-.64.15-.97.16-.12,0-.24,0-.36-.04l-.12.04-.39.04c-.17.05-.34.08-.52.08-.12,0-.25,0-.37,0-.06,0-.13,0-.19,0h-1.31c-.06.03-.13.04-.19.06-.19.04-.38.04-.57,0-.11,0-.22-.03-.32-.06h-.08c-.29-.03-.59-.03-.88,0-.1,0-.2,0-.31,0h-.26c-.28,0-.56-.06-.84-.09h-.12c-.48,0-.96-.09-1.44-.12-.09,0-.18-.01-.27-.03-.1.01-.2.01-.29,0-.13,0-.25-.03-.37-.07h-.12c-.24-.01-.48-.04-.71-.09-.26-.06-.52-.12-.79-.16l-.15-.05h0c-.17,0-.34-.03-.5-.06-.23-.05-.44-.15-.62-.3l-.22-.23c-.12-.17-.19-.37-.19-.57v-.07c-1.33.34-2.12.77-2.12,1.25,0,1.14,4.82,2.07,10.77,2.07s10.79-.94,10.79-2.08c0-.51-1.02-.98-2.65-1.34Z"/><g class="h"><path class="e" d="M18.25,20.42c-.31.14-.65.18-.98.13l-.39.09c-.13.04-.27.06-.41.09-.18.05-.37.06-.55.05h-.05l-.25.08c-.32.1-.64.15-.97.16-.12,0-.24,0-.36-.04l-.12.04-.39.04c-.17.05-.34.08-.52.08-.12,0-.25,0-.37,0-.06,0-.13,0-.19,0h-1.31c-.06.03-.13.04-.19.06-.19.04-.38.04-.57,0-.11,0-.22-.03-.32-.06h-.08c-.29-.03-.59-.03-.88,0-.1,0-.2,0-.31,0h-.26c-.28,0-.56-.06-.84-.09h-.11c-.48,0-.96-.09-1.44-.12-.09,0-.18-.01-.27-.03-.1.01-.2.01-.29,0-.13,0-.25-.03-.37-.07h-.12c-.24-.01-.48-.04-.71-.09-.26-.06-.52-.12-.79-.16l-.15-.05h0c-.17,0-.34-.03-.5-.06-.23-.05-.44-.15-.62-.3l-.06-.06c-.07.07-.11.16-.11.25,0,.87,3.67,1.57,8.2,1.57s8.17-.69,8.17-1.57c0-.09-.04-.18-.1-.24-.11.12-.25.22-.4.29Z"/></g></g><path class="e" d="M13.58,6.41c0-.06,0-.13,0-.19.01-.09.03-.18.06-.26-3.03.43-6.12.25-9.09-.53v1.04c1.9.49,3.86.73,5.82.72,1.08,0,2.16-.07,3.24-.21-.07-.18-.08-.39-.03-.57Z"/><path class="e" d="M16.57,7.55v-.12c-.32.09-.62.16-.97.23,0,.02,0,.04,0,.06-.06.08-.13.16-.2.22l-.11.1c-.08.12-.18.22-.29.31-.11.09-.21.19-.31.29l-.03.04c-.11.17-.33.22-.5.12-.08-.05-.13-.12-.16-.21-.03-.21-.03-.42,0-.62h0c-3.1.47-6.26.31-9.3-.47h0c0,.34-.02.68-.06,1.02,1.87.47,3.8.7,5.72.69,2.09,0,4.18-.25,6.21-.77v-.91Z"/><path class="e" d="M18.62,14.37v-.04c-5.34,1.4-10.96,1.42-16.31.04,0,.41,0,.82-.06,1.25,2.61.67,5.29.99,7.97.97,2.85,0,5.69-.34,8.46-1.03-.03-.41-.04-.82-.06-1.19Z"/><path class="e" d="M18.62,16.71v-.05c-5.34,1.4-10.96,1.42-16.31.05,0,.41,0,.82-.06,1.25,2.61.66,5.29.99,7.97.97,2.85,0,5.68-.36,8.44-1.06-.02-.38-.03-.77-.05-1.16Z"/><path class="e" d="M16.66,9.45v-2.19c-.06-.04-.12-.08-.17-.13l-.06-.06v2.89c.02.13,0,.26-.04.37-.05.11-.13.2-.24.26-.13.05-.26.1-.39.13-.55.17-1.12.31-1.69.42-2.88.48-5.82.32-8.63-.46l-.21-.06c-.24-.04-.43-.23-.46-.47v-4.14c0-1.02,0-2.04-.04-3.06.37.24.78.4,1.21.47.52.11,1.04.2,1.57.26,1.49.17,3,.22,4.5.16l.15-.07h.05c.14-.09.3-.13.47-.13h.11l.14-.08-.73.03c-1.56.09-3.13.06-4.68-.1-.57-.07-2.5-.32-2.73-.85.26-.53,2.14-.72,2.74-.81,1.75-.18,3.52-.22,5.28-.12-.01-.11,0-.23.03-.34-1.79-.18-3.6-.16-5.39.06-.55.06-1.09.16-1.62.29-.3.07-.6.17-.88.31-.11.05-.21.12-.31.2-.16.15-.11.37-.11.57,0,1.07,0,2.14-.04,3.22v3.94c-.04.35.13.69.44.87.13.07.26.12.4.16,1.71.46,3.47.69,5.24.69,1.77.02,3.53-.22,5.24-.69l.21-.06c.25-.05.46-.22.57-.46.06-.15.09-.32.07-.48v-.54Z"/><path class="e" d="M10.65,11.74h-.09c-1.77,0-3.53-.24-5.24-.69l-.15-.06c-.11-.02-.22-.06-.32-.11-.33-.19-.52-.56-.47-.94V2.66c-.04-.18,0-.36.13-.5.1-.09.21-.16.32-.22.29-.13.59-.24.89-.31.54-.14,1.09-.23,1.64-.29,1.81-.22,3.65-.23,5.46-.04h.09l-.04.09c-.04.08-.06.17-.07.26v.06h-.07c-1.76-.1-3.52-.06-5.27.11l-.2.03c-.66.09-2.19.29-2.46.71.18.31,1.07.57,2.64.77h0c1.55.16,3.11.19,4.67.1h.07l.69-.04h.36l-.32.16s-.09.05-.12.07h-.04l-.11.03h-.04c-.15,0-.3.04-.42.12h-.06s-.09.04-.14.07h-.03c-1.51.07-3.02.02-4.52-.16-.53-.04-1.06-.11-1.59-.21h-.16c-.34-.07-.66-.19-.96-.36,0,1.02.03,2.04.04,2.92s0,1.64,0,2.44v1.7c.03.21.19.37.4.41l.22.06c2.8.77,5.73.93,8.59.45.57-.1,1.13-.24,1.68-.41l.12-.04c.09-.02.17-.05.25-.09.1-.05.17-.13.21-.23.04-.11.06-.23.04-.34v-3.04l.11.1s.05.04.07.06c.05.04.1.08.15.12h.04v2.41c0,.11,0,.22,0,.33.01.18-.02.35-.09.51-.12.25-.35.44-.62.5l-.21.06c-1.66.47-3.37.7-5.09.7ZM4.51,9.97h0c-.04.32.11.64.4.8.09.05.19.08.29.1l.14.04c1.7.46,3.46.7,5.22.71,1.76.01,3.51-.23,5.21-.71l.21-.06c.23-.05.43-.2.53-.41.06-.14.08-.3.07-.46,0-.11,0-.23,0-.34v-2.32l-.11-.07v2.73c.01.14,0,.28-.06.41-.06.12-.15.23-.27.29-.09.04-.18.08-.28.1l-.12.04c-.56.17-1.13.31-1.7.42-2.89.48-5.84.32-8.66-.46l-.21-.06c-.27-.05-.48-.26-.51-.53v-4.16c0-.91,0-1.99-.04-3.06v-.17l.12.1c.31.21.65.35,1.02.41l.16.04c.53.12,1.06.19,1.56.26,1.49.17,2.98.22,4.47.16.04-.03.09-.05.14-.07h0c.06-.04.13-.07.21-.09h-.15c-1.57.09-3.15.05-4.71-.12h0c-1.09-.14-2.56-.39-2.77-.89h0c.22-.46,1.37-.66,2.59-.82h.2c1.74-.18,3.49-.22,5.23-.12,0-.05,0-.1,0-.14-1.76-.17-3.53-.14-5.28.07-.55.06-1.09.15-1.62.28-.3.07-.59.17-.86.3-.1.05-.2.12-.29.19-.11.09-.1.22-.09.38v6.86c-.04.17-.04.31-.05.37Z"/><path class="e" d="M14.97,1.88c.24.04.47.1.71.17.02-.05.05-.09.08-.14-.2-.06-.4-.1-.54-.13s-.31-.07-.46-.09c.08.05.15.12.21.19Z"/><path class="e" d="M12.65,3.58c-.53.09-1.03.33-1.44.68-.1.09-.2.19-.29.29-.04.05-.08.1-.12.16s-.06.06-.03.1.06,0,.09,0h.09l.23-.04c.13-.02.26-.03.39-.02.14,0,.28.01.42.04.27.09.53.22.75.4.22.18.46.34.7.49.04.03.08.04.12.06-.07.26-.09.53-.06.8.02.23.07.45.14.66.08.19.14.39.18.59v.04s0,0,0,0c.03.2.03.4.06.59,0,.1.04.2.09.28.05.08.14.12.23.09.09-.04.17-.09.23-.16l.26-.22c.34-.29.66-.59.96-.91.14-.16.29-.33.42-.51l.08-.12s.08.09.12.12c.11.11.23.2.36.27.13.07.27.13.42.18.29.09.62.15.87.27.27.1.5.28.67.51.08.11.14.22.19.34.03.07.06.13.1.19,0,.04.04.07.06.1.02.02.04.04.07.06.03,0,.06,0,.07-.04l.04-.19c.05-.24.06-.49.05-.74-.04-.5-.2-.98-.46-1.4-.28-.44-.67-.8-1.13-1.05l.17-.03c.16-.05.33-.1.48-.17.34-.15.68-.32,1.02-.47l1.05-.5c.12-.06.32-.14.31-.32s-.19-.21-.3-.27c-.31-.18-.64-.34-.97-.48-.33-.14-.67-.23-1.02-.26-.27-.02-.53,0-.79.06v-.12c.06-.44.12-.87.18-1.31l.09-.62c0-.16.08-.37-.04-.51-.13-.12-.32-.14-.47-.05l-.26.13c-.09.05-.17.1-.26.15-.33.21-.61.47-.84.78-.22.3-.39.62-.51.97-.02-.04-.04-.08-.07-.12-.16-.3-.39-.55-.66-.74-.31-.17-.66-.29-1.01-.34-.17-.03-.35-.05-.52-.06-.07,0-.15,0-.22.03-.07.03-.12.08-.16.14-.07.14-.07.3,0,.44.07.14.16.28.26.41.18.27.33.56.46.86.07.16.15.32.23.48-.36-.07-.72-.07-1.08,0ZM15.77,3.25c.1.25.17.52.2.79,0,.26,0,.69-.23.85.09-.29.09-.6,0-.89-.09-.29-.21-.56-.36-.81.16.28.27.57.35.88.08.31.03.64-.12.92-.03-.71-.4-1.37-.99-1.77.55.39.88,1.02.91,1.69-.26-.69-.83-1.21-1.53-1.42.71.22,1.27.77,1.51,1.48v.14c-.08-.15-.18-.28-.29-.4-.11-.12-.28-.18-.44-.16-.04,0-.08,0-.12,0-.02,0-.05-.02-.06-.04-.37-.31-.66-.7-.85-1.14-.19-.43-.41-.85-.67-1.25-.1-.11-.18-.24-.24-.37,0-.02,0-.05,0-.07-.02-.12.02-.25.11-.32.09-.06.2-.08.31-.06.18,0,.35.03.52.06.38.05.74.19,1.06.4.46.39.79.9.95,1.48h0ZM17.76,1.19l-.09.62-.09.62c0,.21-.05.41-.09.62h0c-.3.07-.58.2-.83.36-.15.1-.29.21-.41.34.16-.26.3-.52.43-.79.19-.43.34-.88.43-1.34-.11.45-.26.9-.46,1.32-.19.35-.39.68-.62,1-.02-.18-.06-.36-.12-.54.06-.26.06-.53,0-.79.03.23.01.46-.05.68-.02-.04-.03-.07-.04-.11-.09-.24-.19-.47-.31-.69h0s0-.08.04-.12c.13-.35.31-.67.54-.96.24-.29.54-.53.87-.72l.25-.14c.08-.04.16-.08.25-.11.15-.04.34,0,.37.17.01.08.01.17,0,.26l-.06.31ZM17.51,5.46h0c-.16.01-.31.01-.47,0-.17,0-.34-.03-.5-.07l-.52-.12c-.11-.07-.24-.11-.37-.11h0c.39-.17.83-.22,1.25-.13.17.01.33-.01.49-.08-.15.06-.32.08-.49.06-.38-.09-.77-.09-1.14,0l.06-.07c.09-.05.19-.1.28-.14.47-.2.99-.27,1.49-.21.25.03.5.1.73.21-.23-.12-.48-.2-.73-.23-.57-.08-1.15,0-1.67.25.14-.12.29-.22.44-.33.91-.59,2.02-.78,3.07-.54-.68-.17-1.38-.17-2.06,0-.53.17-1.01.44-1.43.8,0-.04.03-.08.04-.12.04-.14.07-.29.07-.44v-.07s.05-.06.07-.09c.4-.47.95-.79,1.56-.89.3-.05.61-.05.91,0,.34.06.67.17.98.32.16.07.32.15.47.24l.22.12c.07.04.14.08.21.12.05.03.1.07.11.13,0,.08-.06.14-.11.17l-.24.12-.25.11-1.02.48-.51.24c-.15.08-.3.14-.46.2-.16.05-.33.07-.51.07ZM16.22,6.83c.07-.11.12-.22.17-.34h0c.19.11.38.21.58.3-.19-.12-.38-.24-.56-.37.03-.07.04-.14.06-.21.49.13.92.44,1.2.86-.27-.45-.7-.78-1.2-.93,0-.07,0-.15,0-.22,0-.02,0-.04,0-.06.98.25,1.8.9,2.28,1.79-.47-.92-1.31-1.6-2.31-1.87-.02-.08-.06-.15-.1-.22.44.04.87.17,1.25.39.14.08.25.2.33.34-.08-.14-.18-.26-.32-.35-.4-.25-.85-.41-1.32-.46-.03-.04-.07-.08-.12-.11h.09c.17.05.35.08.52.11.17.02.34.03.51.04h.22c.06.03.12.06.18.1.46.27.84.65,1.1,1.12.23.42.36.9.37,1.38,0,.24-.03.48-.09.72h0l-.05-.06c-.04-.06-.08-.13-.11-.2l-.06-.08c-.03-.06-.06-.12-.09-.17-.07-.11-.15-.22-.25-.31-.21-.19-.47-.33-.74-.41-.28-.09-.57-.15-.85-.26-.27-.11-.51-.28-.69-.51h0ZM13.64,5.74c.09-.34.28-.65.56-.86.17-.15.4-.23.62-.23.23,0,.4.22.52.4l.06.1c-.15-.07-.31-.11-.47-.12-.58.17-1,.66-1.08,1.25.08-.37.29-.71.59-.94.19-.2.49-.27.76-.16l.14.06c-.44.25-.79.65-.97,1.12.21-.49.6-.88,1.08-1.09.07.21.09.44.06.66-.06.35-.21.67-.42.95-.22.27-.42.56-.57.87.1-.21.23-.41.37-.59.46-.44.71-1.05.68-1.69.11.21.18.45.19.69.01.33-.1.65-.32.89.24-.24.37-.56.36-.89-.01-.32-.1-.62-.25-.9.05,0,.11,0,.16,0,.29.04.54.24.66.51.07.16.08.33.06.49-.04.19-.11.37-.21.52-.11.17-.22.33-.36.48-.14.16-.28.32-.43.47-.29.3-.62.57-.94.85l-.12.11-.11.07s-.08.02-.11,0c-.04-.02-.07-.05-.09-.09-.04-.09-.06-.19-.07-.29v-.3c0-.1,0-.18-.03-.27.12-.26.29-.5.49-.71-.17.16-.32.34-.46.53l-.06.09c0-.07-.04-.15-.06-.22-.06-.19-.13-.38-.17-.57-.11-.38-.13-.79-.04-1.18ZM11.42,4.18c.43-.31.92-.5,1.44-.56.3-.03.6,0,.9.06.06.1.11.2.17.29.16.25.36.47.59.66h-.1c-.27-.15-.56-.26-.86-.35-.25-.06-.5-.09-.76-.09-.26-.01-.53.01-.79.07.26-.05.52-.08.79-.06.26.02.52.07.77.14.28.09.55.21.81.35l-.11.06c-.06.03-.12.08-.17.12l-.13-.04c-.26-.07-.54-.09-.81-.06.13-.02.27-.02.41,0,.13.01.27.04.39.09.04,0,.07.02.11.04l-.07.07h0c-.18.19-.31.41-.38.66-.1-.05-.2-.1-.29-.16-.23-.16-.44-.34-.67-.49-.22-.16-.48-.27-.75-.32-.13-.02-.27-.02-.41,0-.06,0-.13,0-.19.04l-.12.03c-.08.01-.16.02-.24.02h-.07c.16-.21.34-.41.55-.57Z"/><path class="e" d="M13.98,8.72c-.05-.09-.08-.19-.09-.29,0-.09,0-.2-.03-.29s0-.19,0-.29h0s0-.03,0-.05c-.04-.15-.08-.29-.13-.43,0-.05-.03-.1-.05-.16-.07-.2-.12-.41-.14-.62-.03-.27,0-.53.06-.79l-.15-.11c-.19-.11-.37-.23-.54-.37l-.16-.12c-.22-.18-.47-.31-.74-.39-.14-.04-.28-.05-.42-.04-.13,0-.26.02-.38.06-.08.02-.16.04-.24.04h-.12s-.08,0-.1-.04c-.03-.04,0-.08,0-.11h0l.12-.16c.09-.11.18-.2.29-.29.41-.35.91-.59,1.45-.68.35-.06.7-.06,1.04,0-.07-.14-.14-.3-.21-.44h0c-.11-.3-.25-.6-.41-.87-.02-.04-.04-.07-.07-.1-.08-.09-.14-.2-.19-.31-.07-.14-.07-.31,0-.45.04-.07.1-.12.17-.15.07-.03.15-.04.22-.04.18,0,.35.03.52.06.36.06.71.18,1.02.37.29.17.53.41.71.7.02.02.04.05.05.08h0c.11-.34.28-.65.49-.94.24-.31.53-.58.87-.78l.26-.16h0c.08-.04.16-.09.24-.12.16-.09.36-.06.49.06.09.13.11.3.06.45,0,.02,0,.05,0,.07l-.09.62-.06.42c-.04.29-.08.62-.12.89,0,.03,0,.06,0,.09.25-.05.52-.07.77-.05.36.03.7.12,1.03.26.33.14.65.3.97.47h.04c.11.06.25.13.26.27s-.17.27-.29.32l-1.07.51-.31.15-.71.33c-.16.07-.32.13-.49.17h-.12c.44.25.82.61,1.09,1.04.26.42.42.91.46,1.41.02.25,0,.5-.04.74-.01.06-.03.12-.04.18,0,.02-.02.04-.04.06h-.04s-.05-.03-.07-.06l-.06-.1c0-.06-.07-.12-.11-.19-.05-.12-.11-.24-.19-.34-.17-.23-.4-.4-.67-.51-.17-.07-.36-.12-.53-.17l-.34-.1c-.15-.04-.29-.1-.42-.17-.13-.08-.25-.17-.36-.28l-.11-.11-.07.1c-.13.18-.27.35-.42.51-.31.35-.65.68-1.01.99l-.25.22h-.04c-.06.06-.12.1-.2.13-.03,0-.05,0-.08,0-.05,0-.11-.03-.14-.07ZM16.19,6.88l.12.13c.11.1.23.19.36.27.13.08.27.13.42.17l.34.1c.18.05.36.1.54.17.27.11.51.29.68.52.08.1.15.22.19.34.03.07.06.13.1.19l.06.09s.03.04.06.05h0s0-.02,0-.03c.02-.06.03-.12.04-.18.05-.24.06-.49.04-.74-.04-.49-.2-.97-.46-1.39-.28-.44-.66-.8-1.12-1.04h-.05.05l.17-.03c.17-.04.33-.1.48-.17l.71-.33.31-.15,1.07-.5c.12-.06.29-.14.27-.29s-.14-.19-.24-.24h-.04c-.31-.17-.64-.33-.97-.47-.32-.14-.67-.23-1.02-.26-.27-.02-.53,0-.79.06h0v-.12c.04-.29.09-.59.12-.89l.11-.51.07-.62v-.07c.07-.14.07-.31,0-.45-.13-.1-.31-.12-.46-.04l-.24.12h0c-.1.05-.18.1-.26.15-.32.21-.6.47-.83.77-.22.29-.39.62-.51.96v.04l-.04-.07-.05-.08c-.19-.29-.44-.53-.74-.7-.31-.17-.66-.28-1.01-.33-.17-.03-.34-.05-.52-.06-.07-.02-.14-.02-.21,0-.06.03-.12.08-.16.14-.06.13-.06.29,0,.42.05.11.11.21.19.31.03.03.05.06.07.1.18.27.33.55.46.84h0c.07.16.15.32.23.48h-.04c-.35-.07-.71-.07-1.06,0-.53.09-1.03.33-1.44.67-.1.09-.2.19-.29.29s-.08.11-.12.16h0s-.04.06,0,.07c.02,0,.05,0,.07,0h.07c.08.01.17.02.25.02.13-.03.26-.05.39-.06.14,0,.28.01.42.05.28.08.53.22.76.4l.16.12c.17.14.35.26.54.37l.12.06h0c-.06.26-.09.53-.06.79.03.22.07.44.14.66,0,.05.03.1.05.16.05.14.1.29.13.44h0s0,.03,0,.04h0v.29c0,.09,0,.2.03.3.01.1.04.19.09.27.04.07.13.11.21.09.07-.03.13-.07.19-.12l.04-.03.25-.22c.34-.29.66-.59.96-.91.15-.16.29-.33.42-.51.03-.04.06-.08.08-.12h0l.07.07ZM14.11,8.75s-.07-.06-.09-.11c-.04-.09-.06-.19-.07-.29v-.3c0-.09-.02-.18-.04-.27h0c.07-.13.14-.25.22-.37-.06.07-.11.14-.16.22l-.05.08v.04-.04c0-.08-.04-.16-.06-.23l-.05-.13c-.04-.14-.09-.29-.13-.44-.09-.38-.09-.78,0-1.16.09-.35.29-.65.57-.87.18-.15.4-.23.62-.24.23,0,.39.2.53.41l.06.11v.04h-.04s-.1-.03-.14-.06c-.1-.05-.21-.07-.32-.07-.24.04-.46.16-.62.35l.12-.11c.2-.2.5-.27.77-.16h.03l.11.05h.04-.04c-.22.11-.42.27-.57.47.18-.22.41-.38.67-.47h0c.07.22.08.45.06.67-.05.27-.16.52-.31.74.24-.35.35-.78.32-1.2v-.09l.04.09c.12.21.18.45.19.69v.07s0-.05,0-.07c0-.31-.1-.62-.26-.89h0c.06,0,.11,0,.17,0,.3.04.55.24.67.52.07.16.09.34.06.51-.03.19-.11.37-.21.52-.1.17-.22.33-.36.48-.13.16-.27.31-.43.47-.31.31-.62.59-.94.85l-.12.11s-.06.05-.1.07c-.03,0-.06,0-.09,0h-.04ZM15.67,5.24h-.13c.15.27.23.58.24.89,0,.34-.12.67-.36.91h0c.22-.24.34-.56.32-.88,0-.22-.05-.43-.14-.62,0,.61-.26,1.19-.69,1.61-.15.18-.27.37-.37.58h0c.13-.28.3-.54.5-.78l.07-.1c.21-.28.35-.6.41-.94.03-.21.02-.42-.04-.62-.47.22-.85.6-1.06,1.08h-.03c.17-.49.5-.9.93-1.17l-.07-.03h0c-.25-.1-.55-.04-.74.16-.3.24-.5.57-.59.94h-.03c.09-.6.52-1.08,1.1-1.25.11,0,.23.03.33.07l.1.04-.1-.07c-.1-.2-.28-.35-.5-.39-.23,0-.45.09-.62.23-.28.22-.47.52-.56.86-.09.37-.09.76,0,1.13h0c.04.15.09.3.13.44.02.04.03.09.04.14.02.06.04.12.06.19l.04-.05c.13-.2.28-.38.46-.54h0c-.19.21-.36.44-.49.7.02.09.03.18.04.27,0,.02,0,.05,0,.07,0,.07,0,.15,0,.22,0,.1.03.19.07.28.01.04.04.07.07.09.03.02.07.02.1,0,.04-.01.07-.04.1-.07l.12-.1c.3-.26.62-.54.94-.85.16-.16.29-.31.42-.47.13-.15.25-.31.36-.48.1-.16.17-.33.21-.51.03-.16.01-.33-.05-.49-.11-.26-.35-.45-.62-.5l.05.02ZM19.05,8.87s-.04-.04-.05-.06c-.04-.06-.08-.13-.11-.2-.01-.04-.03-.08-.05-.11-.03-.06-.06-.12-.09-.17-.07-.11-.15-.21-.25-.3-.21-.19-.46-.33-.74-.41l-.31-.09c-.17-.05-.36-.1-.54-.17-.14-.06-.27-.13-.39-.22h0c-.12-.08-.22-.18-.31-.29h0c.07-.11.13-.22.17-.34h0l.29.16-.28-.2h0c.02-.07.04-.14.05-.21h0c.26.07.5.18.71.34-.21-.17-.45-.3-.71-.38h0c0-.07,0-.14,0-.21v-.09h0c.51.16.98.4,1.41.72-.43-.34-.92-.6-1.44-.77h0c-.02-.08-.06-.15-.1-.21v-.03h.2c.25.04.5.09.74.17-.24-.09-.49-.16-.74-.21l-.22-.04h0s-.07-.08-.11-.11l-.05-.05.16.04c.18.04.35.09.52.11.17.02.34.03.51.03h.22l.19.1c.89.52,1.45,1.47,1.47,2.5-.01.23-.05.45-.12.67v.04h-.02ZM17.28,5.56c-.17.01-.35.01-.52,0-.17,0-.34-.07-.52-.11h0s.05.04.06.07l.22.04c.4.05.78.19,1.11.42.14.09.25.21.33.35h0c-.08-.14-.19-.25-.32-.33-.33-.2-.71-.33-1.09-.36h-.12c.04.06.06.12.09.18.99.28,1.83.96,2.31,1.87h-.03c-.48-.87-1.29-1.51-2.24-1.77,0,.01,0,.02,0,.03,0,.07,0,.14,0,.21.5.15.92.49,1.19.94h0c-.28-.42-.69-.72-1.17-.85,0,.05,0,.11-.04.17.17.12.34.24.54.36h0c-.19-.09-.38-.18-.57-.29-.04.11-.1.22-.16.32.09.1.19.2.3.28h0c.12.08.25.16.38.21.18.07.36.12.54.17l.31.09c.28.08.53.22.75.41.15.14.26.31.35.49v.11c.03.07.06.13.11.19v.04c.06-.22.09-.46.08-.69,0-.48-.14-.95-.37-1.37-.25-.46-.63-.85-1.09-1.11l-.18-.1-.22.02ZM13.59,5.68c-.1-.05-.2-.11-.29-.17-.12-.08-.24-.17-.35-.26l-.33-.24c-.22-.16-.47-.27-.74-.32-.13-.02-.27-.02-.4,0h-.32l-.24.04h-.1l.04-.06h0c.16-.21.35-.4.56-.56.42-.31.92-.5,1.44-.56.31-.03.61-.01.91.06h0c.07.12.12.21.17.29.17.24.36.45.59.62h0s-.06.02-.09.03h0c-.27-.15-.56-.26-.86-.35l-.14.06.16.04c.28.09.55.21.81.35h0l-.1.06h0c-.06.03-.12.08-.17.12h0l-.12-.03h-.08.08l.09.03h.04l-.07.07h0c-.17.19-.3.42-.37.66h0l-.11.09ZM13.94,4.89c-.13-.04-.26-.07-.39-.09-.14,0-.27,0-.41,0v-.06c.14-.01.27-.01.41,0,.14.01.27.03.41.07l.12.04h0c.05-.05.11-.09.17-.12h0l.07-.04c-.25-.14-.51-.25-.78-.33-.24-.07-.48-.12-.72-.14-.26-.02-.53,0-.78.06v-.03c.25-.07.52-.1.78-.08.26,0,.53.05.78.12.3.09.58.2.86.35h.06c-.22-.18-.41-.39-.57-.62l-.17-.29c-.29-.07-.59-.09-.89-.06-.52.05-1.01.24-1.43.55-.21.16-.4.34-.56.55h.04l.23-.04h.12l.2-.03c.14-.02.28-.02.41,0,.27.05.53.16.75.32l.33.24c.11.09.22.17.34.26.09.06.18.11.28.16.07-.25.2-.47.37-.66h0l.06-.06-.11-.07ZM16.51,5.41l-.31-.08-.2-.05h0c-.11-.07-.23-.1-.36-.11h-.06.05c.26-.13.56-.18.85-.16-.24-.03-.47,0-.7.07h-.06l.04-.05s.04-.04.05-.07h0c.09-.05.19-.1.29-.14.26-.11.53-.18.81-.22-.33.04-.66.13-.97.26l-.11.06.09-.08c.16-.12.3-.24.44-.33.39-.28.82-.47,1.29-.57l-.26.06c-.52.15-1.01.41-1.43.74l-.05.04.05-.04s0-.08.04-.12c.04-.14.07-.28.07-.43,0-.04,0-.07,0-.11h0v-.04l.06-.06c.41-.47.96-.79,1.57-.9.3-.05.61-.05.91,0,.34.06.67.17.99.31l.47.24.22.12h.06l.16.09c.06.03.1.09.11.15,0,.07,0,.13-.12.19-.06.03-.11.06-.17.09l-.06.03-1.81.86c-.14.06-.3.14-.46.19h0c-.16.06-.32.1-.49.11h-.04c-.16,0-.31,0-.47,0h-.16c-.11-.02-.21-.04-.32-.07h0ZM17.52,5.44c.16-.01.33-.05.48-.11h0c.16-.06.32-.13.46-.19l1.77-.84h.06c.06-.03.11-.06.17-.09.08-.05.11-.1.11-.16-.01-.05-.05-.1-.1-.12l-.15-.12h-.06l-.22-.12-.47-.24c-.31-.14-.64-.25-.97-.31-.3-.05-.61-.05-.91,0-.61.11-1.16.42-1.56.89l-.05.06h0v.11c0,.15-.03.3-.07.44v.06c.42-.35.9-.61,1.41-.77.68-.17,1.39-.17,2.07,0v.03c-.3-.07-.61-.1-.92-.09-.76-.03-1.52.19-2.14.62l-.34.26c.5-.2,1.04-.27,1.57-.21.26.04.51.12.74.24h0c-.23-.11-.48-.18-.73-.21h0c-.5-.05-1,.02-1.46.22-.1.03-.19.08-.28.13h0c.35-.08.72-.08,1.07,0h0c.16.02.33,0,.48-.06v.03c-.16.07-.33.1-.5.08h-.05c-.4-.08-.81-.04-1.18.12h0c.11.01.21.05.31.1l.21.05.31.08c.16.04.33.06.5.07h.46s0,.03,0,.04h0ZM15.46,5.15c-.08-.14-.18-.28-.29-.39-.11-.12-.27-.18-.43-.16h0s-.07,0-.11,0c-.03,0-.05-.02-.07-.04-.37-.31-.66-.7-.85-1.14l-.15-.31c-.14-.33-.32-.65-.52-.95l-.04-.06c-.08-.1-.14-.21-.19-.33v-.08c-.02-.13.02-.26.12-.34.1-.05.21-.07.32-.06.18.01.36.03.53.06.38.06.74.2,1.06.41h0c.48.38.83.9,1,1.49.1.26.17.53.19.8,0,.16.03.67-.23.86l-.04.03v-.05c.07-.2.09-.41.06-.62.03.26-.02.53-.16.76v.04-.05c-.02-.37-.13-.74-.32-1.06.16.3.25.63.27.97v.09-.09c-.15-.37-.39-.69-.69-.94.31.27.54.62.67,1.01.02.04.02.09,0,.13,0,.02-.02.03-.04.04h0l-.09-.02ZM15.53,4.83c-.05-.63-.38-1.21-.89-1.58h0c.58.4.94,1.03.99,1.73.13-.27.17-.58.1-.87-.08-.31-.2-.6-.36-.87h0c.16.26.28.54.37.82.08.27.08.56,0,.84.18-.25.25-.55.21-.85-.03-.27-.09-.54-.19-.79-.17-.58-.52-1.1-.99-1.47-.32-.21-.68-.34-1.05-.4-.17-.03-.35-.05-.52-.06-.1-.02-.21,0-.3.06-.07.08-.1.2-.07.31v.08c.05.12.11.22.19.32l.04.05c.2.31.38.63.52.96l.15.31c.19.44.47.82.84,1.13l.06.03s.06,0,.09,0h0c.17-.02.34.04.46.16.11.12.21.25.29.39h0s.01-.07,0-.1c-.23-.7-.79-1.25-1.49-1.47v-.06c.7.18,1.28.67,1.57,1.33h0ZM16.02,3.98c-.02-.18-.06-.36-.12-.53h0c.03-.13.04-.26.05-.39-.01.1-.03.2-.06.29v.05-.05s-.03-.08-.04-.11c-.08-.24-.19-.47-.31-.69h0l.05-.12c.13-.35.31-.67.54-.96.23-.29.52-.54.84-.73l.23-.18h0c.08-.04.16-.08.24-.11.1-.03.2-.02.29.03.06.04.09.1.1.16,0,.07,0,.15,0,.22v.04l-.22,1.58c0,.06,0,.11,0,.17,0,.14-.04.3-.06.44h0c-.29.08-.57.2-.82.36-.15.1-.29.21-.41.34l-.1.09.07-.12c.16-.25.3-.52.42-.79.02-.03.03-.06.04-.09l-.04.09c-.17.35-.37.68-.59,1v.04l-.1-.03ZM17.11,1.66c-.09.46-.24.91-.44,1.34-.11.24-.23.47-.37.69.1-.09.21-.18.33-.26.26-.17.54-.29.83-.37h0c0-.14.04-.29.06-.44,0-.05,0-.11,0-.16l.21-1.59v-.04c.01-.07.01-.14,0-.21,0-.06-.04-.11-.09-.14-.08-.04-.18-.04-.26,0-.08.03-.16.06-.23.11h0c-.09.04-.18.09-.26.14-.32.19-.6.44-.84.72-.23.29-.41.61-.54.96,0,.04,0,.08-.04.12.12.22.23.45.31.69v.06c.05-.2.07-.42.04-.62h.11c.06.26.06.53,0,.79.06.16.1.33.12.49.21-.3.4-.62.56-.96.21-.42.36-.86.47-1.32h.01Z"/><path class="e" d="M13.97,8.73c-.05-.09-.09-.19-.1-.29,0-.1,0-.2-.03-.3s0-.19,0-.28,0,0,0,0c0-.02,0-.04,0-.06-.03-.14-.08-.29-.13-.42-.01-.05-.03-.11-.05-.16-.07-.22-.12-.44-.14-.66-.03-.26,0-.53.06-.79l-.13-.07c-.19-.11-.37-.24-.54-.37l-.16-.12c-.22-.18-.47-.31-.74-.39-.14-.04-.29-.06-.43-.06-.13,0-.26.02-.38.06-.08.02-.16.04-.24.04h-.12s-.08-.01-.11-.04c-.04-.05,0-.09,0-.12h0c.04-.06.08-.11.12-.16.09-.1.19-.2.29-.29.69-.6,1.61-.85,2.5-.68-.07-.14-.14-.28-.2-.42h0c-.12-.29-.27-.58-.45-.84l-.07-.09c-.08-.1-.14-.21-.19-.32-.07-.15-.07-.32,0-.46.04-.07.1-.13.17-.16.07-.03.15-.04.23-.04.18,0,.35.03.52.06.36.05.72.17,1.04.35.29.17.54.4.73.69l.04.07c.11-.33.28-.64.48-.92.23-.32.52-.58.85-.79l.26-.15h0c.09-.06.18-.11.27-.15.16-.09.37-.07.51.05.09.14.11.31.06.47,0,.02,0,.05,0,.07l-.08.66-.06.43c-.04.29-.08.59-.12.88,0,.03,0,.05,0,.08.25-.05.51-.07.77-.05.36.03.7.12,1.03.26.33.14.66.3.97.48h.04c.11.06.26.13.27.28s-.17.28-.3.34l-1.07.51-.31.14-.74.39c-.16.07-.32.13-.49.17h-.09c.43.25.8.6,1.06,1.02.27.42.43.91.46,1.41.02.25,0,.5-.04.75-.01.06-.02.13-.04.19,0,.03-.02.05-.04.06-.02,0-.04,0-.06,0-.03-.01-.06-.04-.07-.06l-.07-.1c-.04-.06-.07-.13-.1-.2-.05-.12-.12-.23-.19-.34-.17-.23-.4-.4-.66-.5-.17-.07-.35-.12-.53-.17l-.34-.1c-.15-.04-.3-.1-.43-.18-.13-.07-.26-.17-.36-.27-.04-.03-.07-.07-.1-.11l-.07.09c-.12.16-.26.32-.42.51-.3.32-.62.63-.96.92l-.26.21-.04.04c-.06.06-.13.1-.21.13-.03,0-.05,0-.08,0-.07,0-.14-.05-.17-.11ZM16.2,6.85s.08.09.12.12c.11.1.23.19.36.27.13.07.27.13.41.18l.34.09c.18.05.37.1.54.17.27.1.51.28.69.51.08.11.14.23.19.36.03.07.07.13.1.19.02.03.04.06.06.09.01.02.03.03.05.04h0c.02-.06.03-.12.04-.17.05-.24.06-.49.04-.74-.07-1.02-.66-1.94-1.57-2.42l-.08-.04h.26c.16-.04.32-.1.47-.17l.71-.33.31-.15,1.07-.5c.12-.06.29-.14.27-.28s-.13-.18-.24-.23h-.04c-.31-.18-.63-.33-.96-.47-.32-.14-.67-.23-1.02-.26-.26-.02-.53,0-.79.06h-.04v-.22c.04-.29.08-.59.12-.88l.11-.44.08-.62s0-.05,0-.07c0-.14.05-.31-.05-.41-.12-.1-.3-.12-.44-.04l-.24.12h0c-.1.05-.18.1-.26.15-.32.2-.6.46-.83.77-.22.29-.38.62-.5.96v.06l-.05-.09-.05-.07c-.17-.29-.41-.52-.69-.7-.31-.17-.65-.29-1.01-.33-.17-.03-.34-.05-.52-.06-.07-.02-.14-.02-.21,0-.06.03-.11.08-.14.13-.06.13-.06.29,0,.42.05.11.12.21.19.3l.07.09c.18.27.33.56.46.86h0c.07.16.14.31.22.47v.05h-.06c-.35-.07-.71-.07-1.06,0-.53.09-1.03.32-1.44.67-.1.09-.19.19-.28.29l-.12.15h0v.06s.05,0,.07,0h.07l.25-.02c.13-.03.26-.05.39-.06.14,0,.29.01.42.05.28.09.54.22.76.41l.16.12c.17.14.35.26.54.37l.11.06h.03c-.06.26-.09.52-.06.79.03.21.08.42.14.62.01.05.03.11.05.16.05.14.1.29.13.44h0v.29c0,.09,0,.2.03.29.01.1.04.19.09.27.04.07.12.1.2.08.07-.03.13-.07.18-.12l.04-.04.26-.21c.34-.29.65-.59.96-.91.16-.18.3-.34.42-.51l.09-.12h0l.07.12ZM14.11,8.73s-.08-.06-.1-.11c-.04-.09-.06-.19-.07-.29v-.3c0-.09-.02-.18-.04-.27h0s.03-.07.04-.1h0v.06-.07c0-.07-.04-.15-.06-.22l-.05-.13c-.04-.14-.09-.29-.13-.44h0c-.09-.38-.09-.78,0-1.16.09-.35.29-.66.57-.88.18-.15.4-.23.62-.24.24,0,.41.21.54.41l.07.11.04.06h0c.06.16.08.34.07.51,0-.1,0-.2,0-.29v-.16l.07.15s.03.06.04.09l-.12-.27h.04c.06,0,.11,0,.17,0h0c.3.04.56.24.67.52.07.16.09.34.06.51-.03.19-.11.37-.21.53-.11.17-.23.33-.36.49-.13.16-.27.31-.43.47-.31.31-.62.59-.94.86l-.12.1s-.07.06-.11.07c-.03,0-.06,0-.09,0h-.17ZM15.67,5.22h-.11c.15.27.23.57.24.87,0,.34-.13.67-.37.92l-.04-.04c.22-.24.33-.55.31-.87,0-.18-.04-.36-.12-.53-.03.58-.28,1.14-.69,1.55-.15.18-.27.37-.37.58h-.05c.14-.28.3-.54.5-.78l.08-.1c.21-.27.35-.59.41-.93.04-.21.02-.42-.04-.62-.46.22-.83.6-1.03,1.07h-.06c.18-.46.51-.86.93-1.12h-.08c-.25-.1-.54-.03-.72.16-.29.23-.5.56-.58.92h-.06c.1-.6.53-1.08,1.11-1.25.12,0,.24.03.34.08h.06v-.04c-.13-.19-.28-.38-.49-.39-.22,0-.43.09-.59.23-.27.21-.47.51-.56.84-.09.37-.09.76,0,1.13.03.15.08.29.13.44.02.04.03.09.04.13,0,.06.04.11.05.16h0c.13-.2.29-.38.46-.54l.04.04c-.19.21-.35.44-.48.69.02.09.03.18.04.27v.07c0,.07,0,.15,0,.22,0,.09.02.19.06.27,0,.04.04.07.07.08.03.01.06.01.09,0l.09-.07.12-.11c.31-.26.62-.54.94-.85.16-.16.3-.31.43-.46.13-.15.25-.31.35-.48.1-.15.17-.33.21-.51.09-.45-.2-.88-.65-.97-.01,0-.02,0-.03,0l.03-.09ZM15.39,5.14s-.1-.03-.14-.06h-.08.04l.11.04h.06-.06c-.05.02-.1.05-.15.09.07-.04.15-.08.24-.11h0v.03ZM19.07,8.88l-.05-.06-.11-.21v-.06s0-.03,0-.05c-.03-.06-.06-.12-.09-.17-.24-.37-.62-.62-1.06-.7l-.31-.09c-.18-.05-.36-.1-.54-.17-.14-.06-.27-.13-.39-.22h0c-.12-.09-.22-.19-.32-.3h0c.07-.11.13-.22.17-.34h0l.07.04-.07-.06h0c.02-.06.04-.13.05-.2v-.04h.03c.08.02.15.04.22.07-.07-.04-.15-.06-.23-.09h0c0-.07,0-.14,0-.21v-.11h.04l.46.17c-.17-.07-.34-.14-.5-.19h0c-.02-.07-.06-.14-.1-.21l-.04-.06h.31-.08l-.22-.04h0c-.05-.08-.1-.15-.17-.21l-.09-.08.21.06c.18.04.35.09.52.11.17.02.34.03.51.03h.23l.19.11c.46.27.85.66,1.11,1.13.23.43.36.9.37,1.39,0,.25-.04.5-.11.74h0v.04-.02ZM17.31,5.56c-.17,0-.35,0-.52-.03-.17-.03-.34-.06-.51-.11v.04l.22.04c.4.05.78.19,1.11.42.14.09.25.22.33.36h-.05c-.08-.13-.19-.24-.32-.32-.33-.2-.7-.33-1.08-.36h-.1s.05.1.07.15c1,.28,1.83.96,2.31,1.87h-.06c-.47-.86-1.27-1.5-2.22-1.76h0c0,.07,0,.14,0,.21.5.16.92.49,1.19.94l-.05.03c-.27-.41-.68-.71-1.16-.84,0,.06-.02.11-.04.16.17.12.34.23.54.35v.05c-.19-.09-.37-.18-.56-.29-.04.11-.09.21-.16.31.09.1.19.19.29.27h0c.12.08.25.15.38.21.17.07.35.12.53.17l.32.09c.28.08.53.22.75.41.1.09.19.2.26.31.04.06.07.12.09.18,0,.02,0,.03,0,.05,0,.02,0,.04,0,.06.03.07.07.13.11.19h0c.05-.22.07-.44.07-.66,0-.48-.13-.95-.36-1.37-.25-.46-.63-.84-1.09-1.11l-.17-.1-.13.07ZM13.61,5.68c-.1-.05-.2-.11-.3-.17-.12-.08-.23-.17-.34-.26l-.33-.24c-.22-.16-.47-.27-.73-.32-.13-.02-.27-.02-.4,0l-.19.03h-.12l-.24.04h-.12l.05-.07h0c.16-.21.35-.4.57-.56.42-.31.93-.51,1.45-.56.31-.03.61-.01.91.06h0c.06.12.12.21.17.29.08.11.16.21.24.31-.21-.26-.39-.54-.53-.84l-.15-.31c-.14-.33-.32-.65-.52-.95l-.04-.06c-.08-.1-.15-.21-.19-.33v-.09c-.02-.13.03-.27.13-.35.1-.06.21-.08.32-.06.18.01.36.03.53.06.38.06.75.19,1.07.41h0c.33.25.59.57.77.94l-.08-.16h0l.05-.13c.13-.35.31-.68.54-.97.24-.29.52-.54.84-.73l.23-.14h0c.08-.04.16-.08.24-.11.1-.04.2-.04.3,0,.06.05.09.12.08.19.01.07.01.15,0,.22l-.22,1.62c0,.05,0,.11,0,.16,0,.14-.04.3-.06.45h-.04c-.29.08-.57.2-.82.36-.15.1-.29.21-.41.34l-.17.17.11-.17-.12.19-.04.07v-.08c-.02-.18-.06-.36-.12-.53h0v-.09.09-.09h0c.08.23.14.47.16.72,0,.1,0,.19,0,.29,0-.04,0-.09,0-.13,0-.04,0-.07,0-.11h0v-.04l.05-.06c.41-.47.97-.79,1.58-.91.3-.05.61-.05.92,0,.34.06.67.17.98.32.15.06.3.14.48.23l.22.12.06.03c.05.02.11.05.16.09.06.03.1.09.12.15,0,.11-.09.18-.12.21l-.17.09h-.06l-1.8.86c-.14.06-.3.14-.46.19h0c-.16.06-.33.1-.5.11h-.04c-.16,0-.32,0-.47,0-.17,0-.34-.03-.5-.07l-.31-.08-.21-.05h0c-.11-.06-.23-.1-.36-.11h-.09l.07-.05h0l.14-.07h-.08l.07-.08s.03-.04.05-.07h.05l-.11.05.17-.14.14-.11-.11.09-.08.07v-.05s-.07.09-.11.12l-.08.06.04-.09h0s-.05.1-.07.14l-.05.08v-.09c0-.17-.04-.34-.08-.5.03.14.05.27.06.41v.17l-.06-.16c-.06-.16-.14-.31-.24-.46.1.16.19.34.24.52.02.04.02.09,0,.14,0,0,0,.04-.05.04h0c-.08-.14-.17-.27-.29-.39-.11-.11-.27-.17-.42-.16h0s-.08,0-.12,0c-.03,0-.05-.02-.07-.04-.05-.04-.1-.08-.14-.12.05.05.11.1.17.14l-.04.05h0l-.08.03h-.04l-.1.06h0c-.06.03-.12.07-.17.12h0l-.07.07h0c-.18.18-.3.41-.37.66h0l-.05.05ZM13.97,4.89c-.13-.04-.26-.07-.39-.09h0c-.13,0-.26,0-.39,0v-.06c.14-.01.28-.01.41,0,.14.01.27.03.41.07l.12.04c.05-.04.11-.08.16-.11h0l.05-.03c-.24-.13-.49-.24-.76-.32-.25-.08-.5-.14-.76-.16-.26-.02-.52,0-.77.06v-.06c.25-.07.51-.09.77-.08.27,0,.53.05.79.12.3.09.58.2.85.35h.04c-.21-.18-.4-.39-.56-.62-.06-.09-.12-.19-.17-.29-.29-.06-.59-.08-.88-.05-.79.07-1.51.46-1.99,1.08h0l.24-.04h.32c.14-.02.28-.02.41,0,.27.05.53.16.76.32.11.07.22.16.33.24l.34.25.26.15c.08-.23.21-.44.37-.62h0l.04-.04v-.11ZM17.55,5.43c.16-.01.33-.05.48-.11h0c.15-.06.3-.12.45-.19l1.77-.84h.06l.17-.09c.07-.05.11-.09.1-.14s-.06-.09-.09-.11c-.05-.03-.1-.06-.15-.09h-.06l-.22-.12-.47-.24c-.31-.15-.64-.25-.97-.31-.3-.05-.6-.05-.89,0-.6.1-1.15.42-1.55.88l-.05.06h0v.1c0,.15-.03.3-.07.44h0c.41-.33.88-.58,1.39-.74.68-.17,1.4-.17,2.08,0v.06c-.3-.07-.61-.1-.92-.09-.76-.03-1.51.19-2.13.62l-.28.2c.48-.18.99-.24,1.5-.17.26.04.51.12.74.24v.05c-.23-.11-.47-.18-.72-.21-.5-.05-1.01.02-1.47.22-.09.03-.18.07-.26.12.34-.07.69-.07,1.03,0h0c.16.02.33,0,.47-.06v.06c-.16.07-.33.1-.51.08h-.05c-.38-.07-.77-.04-1.14.1.1.01.19.04.28.09l.2.05.31.08c.16.04.33.06.49.07h.46s.03,0,.03,0ZM15.51,4.74c-.07-.6-.39-1.14-.88-1.5l.03-.04c.57.38.93,1,.99,1.69.11-.26.14-.54.07-.81-.08-.31-.2-.6-.36-.87h.05c.16.26.29.53.37.82.07.26.07.53,0,.79.13-.23.19-.5.15-.77-.03-.27-.09-.54-.19-.79-.17-.58-.51-1.09-.98-1.46h0c-.31-.21-.67-.34-1.04-.4-.17-.03-.35-.05-.52-.06-.1-.02-.2,0-.29.05-.08.08-.11.19-.09.3v.07c.04.11.11.22.18.31l.04.06c.2.3.38.63.52.96l.16.31c.19.44.47.82.84,1.13.02,0,.03,0,.05,0,.03,0,.06,0,.09,0h0c.17-.02.35.04.47.17.11.11.21.24.28.37,0-.03,0-.06,0-.09-.23-.7-.79-1.25-1.49-1.46v-.06c.69.17,1.26.64,1.56,1.27ZM17.12,1.66c-.1.46-.25.91-.44,1.34-.1.22-.21.42-.32.62.09-.07.18-.14.27-.21.26-.17.54-.29.84-.37h0c0-.14.04-.29.06-.42,0-.06,0-.11,0-.17l.17-1.25.04-.36c.01-.07.01-.14,0-.21,0-.05-.03-.1-.08-.13-.08-.04-.17-.04-.26,0-.08.03-.15.06-.22.1h0l-.26.14c-.32.19-.6.43-.83.72-.23.29-.41.61-.54.96l-.04.11c.12.22.22.45.31.69h0c.03-.19.03-.38,0-.57h.06c.06.26.06.53,0,.79.05.15.09.31.11.46.21-.3.39-.61.55-.93.2-.42.36-.86.46-1.31h.11Z"/><path class="e" d="M13.96,8.73c-.05-.09-.08-.19-.09-.3-.02-.1-.03-.2-.03-.3,0-.09-.01-.18-.03-.27v-.03s0-.04,0-.06c-.03-.14-.07-.28-.12-.42h0s-.04-.1-.05-.15c-.09-.22-.15-.44-.18-.67-.02-.26,0-.52.05-.77l-.05-.05c-.19-.11-.37-.24-.54-.37h0l-.15-.12c-.22-.18-.47-.31-.74-.39-.14-.04-.29-.07-.44-.07-.13,0-.25.03-.37.06l-.24.04h-.12s-.09-.02-.12-.05c-.04-.04-.04-.11,0-.15h0l.12-.16c.09-.11.19-.2.29-.29.42-.36.93-.6,1.47-.69.33-.06.66-.06.99,0-.06-.12-.12-.26-.18-.38h0c-.12-.3-.28-.58-.46-.84l-.06-.09h0c-.08-.1-.14-.21-.19-.32-.07-.15-.07-.32,0-.47.04-.08.1-.14.18-.17.08-.02.16-.02.24,0,.18,0,.36.03.53.06.37.04.72.15,1.04.33.29.17.54.42.72.71v.04c.13-.33.3-.64.52-.92.23-.31.52-.58.85-.79l.26-.16h0l.25-.12c.17-.1.38-.07.52.06.1.14.12.31.07.47v.07l-.08.64c0,.14-.04.29-.06.43h0c-.04.28-.08.57-.12.86v.06c.25-.05.5-.06.75-.04.36.03.71.12,1.04.27.34.14.67.31.97.47h.04c.12.06.26.14.28.29s-.18.3-.31.36l-1.07.5-.31.15-.73.41c-.16.07-.32.13-.49.17h-.05c.42.25.78.59,1.04,1,.26.43.42.92.46,1.42.02.25,0,.51-.05.76-.01.06-.03.12-.04.18,0,.03-.02.06-.05.07-.02,0-.05,0-.07,0-.03-.02-.06-.04-.08-.07l-.07-.1c-.04-.06-.07-.13-.11-.2-.05-.12-.11-.23-.19-.33-.17-.23-.39-.4-.66-.49-.17-.07-.35-.13-.53-.17h0l-.34-.1c-.15-.04-.29-.11-.43-.18-.13-.08-.26-.17-.37-.28l-.09-.09-.05.07c-.12.17-.26.33-.42.51-.3.34-.63.66-.97.96l-.25.21-.04.04c-.06.06-.13.11-.21.14h-.09c-.08-.02-.15-.07-.19-.15ZM16.19,6.92l.09.11c.11.11.24.2.37.27.13.07.27.14.42.18.11.04.22.07.34.09h0c.18.04.36.1.53.17.27.1.5.27.67.5.08.11.14.22.19.34,0,.07.07.14.1.2l.07.09s.04.05.07.06c.02,0,.03,0,.05,0,.02-.01.03-.03.03-.05.02-.06.03-.12.04-.18.05-.24.06-.49.05-.74-.04-.5-.2-.98-.46-1.41-.27-.42-.63-.77-1.06-1.02h-.04.14c.17-.05.33-.1.49-.17l.71-.33.31-.15,1.07-.5c.12-.06.31-.15.29-.32s-.16-.21-.26-.26h-.04c-.31-.18-.64-.34-.97-.47-.33-.14-.68-.23-1.03-.27-.25-.02-.51,0-.76.05h0s0-.05,0-.07c.04-.29.08-.58.12-.86h0c0-.14.04-.29.06-.43l.09-.62v-.07c.11-.19.09-.42-.05-.59-.14-.12-.34-.14-.49-.05l-.24.12h0c-.1.05-.18.1-.26.15-.34.2-.64.47-.87.79-.21.28-.37.59-.49.92h0l-.04-.06c-.18-.29-.43-.53-.72-.7-.31-.18-.66-.29-1.02-.34-.17-.03-.35-.05-.52-.06-.07-.01-.15-.01-.22,0-.07.03-.13.08-.17.15-.07.14-.07.31,0,.45.05.11.12.22.19.31h0s.05.06.07.09c.17.27.33.55.46.84h0c.06.13.12.27.19.41v.03h0c-.33-.06-.68-.06-1.01,0-.54.1-1.04.33-1.46.69-.1.09-.2.18-.29.29l-.12.16h0s-.05.07,0,.11.07.03.09.04h.06c.08,0,.16-.02.23-.04.13-.01.26,0,.39,0,.14,0,.27.01.41.04.27.09.53.22.75.4l.15.11h0c.17.14.35.26.54.37l.1.05h0c-.06.26-.08.52-.06.78.03.21.07.42.14.62.02.05.04.1.05.15h0c.05.14.09.28.12.43h0s0,.03,0,.04h0c.02.1.03.19.03.29,0,.1,0,.2,0,.29,0,.1.04.2.09.29.05.09.15.13.24.1.07-.03.14-.07.19-.12l.04-.04.25-.21c.34-.29.66-.59.96-.92.15-.16.29-.33.42-.51l.07-.09h0l.11.08ZM14.01,8.7c-.05-.08-.08-.18-.09-.27-.02-.1-.03-.2-.03-.29,0-.1,0-.2-.03-.3h0s0-.03,0-.04h0c-.03-.15-.08-.29-.12-.44h0s-.03-.09-.05-.14c-.07-.21-.11-.43-.14-.66-.03-.27,0-.53.06-.79h0s-.08-.04-.11-.06c-.19-.11-.37-.23-.54-.37l-.16-.12c-.23-.22-.5-.38-.79-.48-.14-.02-.29-.02-.43,0-.13,0-.26.03-.39.06-.07.02-.15.03-.22.04-.04,0-.08,0-.12,0h-.07v-.06h0c.04-.05.08-.11.12-.16.09-.1.18-.2.29-.29.41-.35.91-.59,1.44-.68.35-.06.72-.06,1.07,0h0c-.08-.15-.16-.31-.22-.47h0c-.11-.33-.25-.65-.42-.95-.03-.03-.05-.06-.07-.1-.08-.09-.14-.19-.19-.3-.07-.14-.07-.3,0-.43.03-.06.09-.11.15-.14.07-.01.15-.01.22,0,.17,0,.35.03.52.06.36.03.71.13,1.03.29.29.17.53.41.71.69l.04.08.04.06h0c.12-.35.29-.67.51-.96.23-.31.51-.57.84-.78l.26-.15h0c.08-.05.16-.09.24-.12.15-.08.33-.06.46.04.08.13.1.29.05.43h0v.07l-.09.64c0,.11,0,.22-.04.32v.11c-.04.29-.07.59-.12.88v.12h0c.26-.06.53-.07.79-.05.35.03.7.12,1.02.26.33.14.65.3.96.48h.04c.11.06.23.12.25.25s-.16.24-.28.29l-1.07.51-.3.14h0c-.23.11-.47.22-.71.32-.15.07-.32.13-.48.17l-.17.03h-.04.04c.91.49,1.51,1.41,1.58,2.44.01.25,0,.49-.05.74l-.04.18s0,.03,0,.04h0s-.04-.03-.06-.05c-.02-.03-.04-.07-.06-.1-.04-.06-.07-.12-.1-.19-.05-.12-.12-.24-.19-.35-.18-.23-.41-.41-.68-.51-.17-.07-.35-.13-.54-.17h0l-.33-.1c-.14-.05-.28-.1-.42-.17-.13-.08-.25-.17-.36-.27l-.12-.13h0l-.09.12c-.13.17-.27.34-.42.5-.34.36-.7.69-1.09.99l-.25.21-.03.03h0c-.06.05-.12.1-.19.12h-.07c-.06,0-.11-.04-.14-.09ZM15.68,5.21c-.06,0-.11,0-.17,0h0c.05.1.09.19.12.27h0l-.04-.09v-.06.07c0,.1,0,.2,0,.29h0c.01-.17-.01-.34-.07-.5h0c-.08.03-.16.06-.24.11v-.03l.15-.08h0l-.11-.04h-.04v-.03l.08.03.14.05h0l-.2-.16c-.1-.2-.28-.35-.49-.41h-.03c-.23,0-.45.09-.62.23-.28.22-.48.53-.57.87-.09.37-.09.76,0,1.13h0v.04h0c.04.14.08.29.13.42h0l.04.11c0,.07.04.15.06.22v.03l.03-.06h.03s-.04.06-.05.09h0c.02.09.03.18.03.27v.3c0,.1.03.2.07.29.02.04.05.08.09.1.04.02.09.02.12,0,.04-.02.07-.05.11-.07l.12-.1c.3-.26.62-.54.94-.86.16-.15.3-.31.43-.47.13-.15.25-.31.36-.48.1-.16.17-.34.21-.52.03-.17,0-.35-.06-.51-.12-.28-.37-.47-.66-.52l.07.04ZM17.5,5.52h-.22c-.35,0-.7-.05-1.04-.15h-.14l.04.04s.08.07.11.11h0l.23.05h.08-.08l-.16-.03h0c.04.07.08.14.11.21h0c.17.06.34.12.5.19h0c-.15-.06-.31-.12-.46-.17h0v.07c0,.07,0,.15,0,.22h0l.23.09h0l-.22-.07h0c-.01.07-.03.14-.05.21h0l.07.06h0l-.07-.04h0c-.05.12-.11.23-.17.34h0c.1.11.2.21.32.3.12.09.25.16.38.21.18.07.36.13.54.17h0l.31.09c.27.08.53.21.74.4.09.09.17.19.24.31.04.06.07.11.1.17v.11c.03.07.07.14.11.2.01.02.03.04.04.06h0c.06-.23.09-.48.09-.72-.01-.48-.14-.96-.37-1.38-.26-.47-.64-.86-1.1-1.12-.06-.03-.11-.07-.18-.1h0v.17ZM14.09,4.89h0c.05-.05.11-.09.17-.12h0l.09-.05h.1l.03-.04-.16-.14h0s.09.08.14.12c.02.02.04.03.06.04.03,0,.07,0,.11,0h0c.16-.02.32.04.44.16.11.12.21.25.29.39h0s.03-.02.04-.03c.01-.04.01-.08,0-.12-.06-.18-.14-.35-.24-.51h0c.1.14.18.29.24.46v.07-.07c0-.14-.02-.28-.05-.41h0c.04.17.07.34.07.51v.04-.03s.05-.09.07-.14h0v.04h.03s.08-.07.11-.12h0l.29-.16.11-.09h0l-.14.11-.07.06h-.04v.04l.07-.04c.08-.05.17-.09.26-.12.46-.19.96-.27,1.46-.22h0c.25.03.49.1.71.21h0c-.23-.11-.47-.19-.72-.22-.5-.07-1.01,0-1.49.17l-.1.04.09-.07c.09-.07.18-.14.27-.2.63-.44,1.38-.66,2.14-.62.3,0,.61.03.91.09h0c-.67-.16-1.38-.16-2.05,0-.51.15-.98.41-1.39.74l-.02.12v-.05h0c.05-.14.08-.29.07-.44v-.14h0l.05-.06c.4-.47.95-.78,1.56-.89.3-.05.61-.05.91,0,.34.06.67.17.97.32.14.06.29.14.47.23l.22.12h.06c.05.02.1.05.15.08.05.03.09.07.11.12,0,.06,0,.11-.11.16-.06.03-.11.06-.17.09h0l-.06.03-1.74.81c-.14.06-.29.14-.45.19-.16.06-.32.09-.49.11h-.04c-.15.01-.31.01-.46,0-.17,0-.34-.03-.5-.07l-.3-.07h0l-.2-.05h0c-.09-.05-.18-.08-.28-.09h-.05.05c.36-.14.76-.17,1.14-.1h.05c.17.01.33-.01.49-.07h0c-.15.06-.31.08-.47.06h0c-.34-.07-.69-.07-1.02,0l-.09.03h0v.03h0l-.14.06h0c.13,0,.25.04.36.1h0l.17.05h0l.31.07c.17.04.34.06.51.07.16,0,.31,0,.47,0h.04c.17-.01.33-.05.49-.11.16-.06.31-.12.46-.2l1.77-.84h.06c.06-.03.12-.06.17-.09.03,0,.13-.08.12-.18-.02-.06-.06-.11-.12-.14l-.17-.11-.06-.03-.22-.12c-.16-.09-.32-.17-.48-.24-.31-.15-.64-.26-.98-.32-.3-.05-.61-.05-.91,0-.61.11-1.17.42-1.57.9l-.05.06h0v.11s0,.09,0,.13h-.03v-.25h0v-.04c-.03-.24-.08-.48-.17-.71h0v.05-.03h.1v.09h0c.06.18.1.35.12.54v.03h0l.12-.19h0l-.04.06.07-.07c.13-.13.26-.24.41-.34.25-.17.54-.29.83-.36h0c0-.14.05-.3.07-.45v-.16l.27-1.59c0-.07,0-.15,0-.22,0-.07-.05-.12-.1-.16-.09-.04-.2-.04-.29,0-.08.03-.16.06-.23.1h0l-.26.14c-.32.19-.61.44-.84.73-.23.29-.42.61-.54.96,0,.04,0,.09-.04.13h0s.06.1.08.16h0c-.17-.37-.43-.69-.76-.94-.32-.21-.68-.35-1.06-.4-.18-.03-.35-.05-.53-.06-.11-.02-.22,0-.32.06-.1.08-.14.21-.12.34,0,.03,0,.05,0,.08.04.12.11.23.19.32l.04.06c.2.3.38.62.52.96.05.11.1.21.15.31.14.3.32.59.52.84h0c-.09-.1-.17-.21-.24-.32-.05-.08-.11-.17-.17-.29h0c-.3-.06-.6-.08-.91-.06-.52.05-1.02.25-1.44.56-.21.16-.4.34-.56.55l-.08.04h.12l.24-.04h.12c.07-.02.13-.03.2-.04.13-.02.27-.02.4,0,.27.05.52.16.74.32l.32.24h0l.35.26.29.16h0c.07-.25.2-.47.37-.66h0l.07-.07h.04ZM17.52,5.42c.16-.02.32-.05.47-.11.16-.06.31-.13.45-.19l1.77-.84h.06c.06-.02.11-.05.17-.08.07-.05.1-.09.09-.13s-.05-.07-.09-.1l-.12-.12-.06-.03-.22-.12c-.18-.09-.33-.17-.47-.23-.31-.15-.63-.25-.97-.31-.3-.05-.6-.05-.89,0-.6.11-1.14.42-1.54.88l-.05.06h0s0,.06,0,.09c0,.14-.02.29-.06.42.4-.32.86-.56,1.35-.71.69-.17,1.4-.17,2.09,0h0v.09h0c-.3-.07-.61-.11-.92-.1-.76-.03-1.5.19-2.12.62l-.19.14c.45-.16.93-.2,1.41-.14.26.04.51.12.74.24h0l-.04.08h0c-.23-.11-.47-.18-.72-.21-.5-.06-1.01.02-1.47.21l-.14.06c.3-.05.61-.05.91,0h0c.16.02.32,0,.47-.06h0l.04.08h0c-.16.08-.34.11-.51.09h-.05c-.36-.07-.73-.04-1.08.07.08.02.16.05.23.09l.2.05h0l.29.07c.16.04.33.06.49.07.15,0,.3,0,.46,0l.04.06ZM15.58,5.13v-.07s0,.06,0,.09c-.01.02-.03.04-.06.05h0l.06-.06ZM15.58,5.16h0ZM15.73,4.99h-.06l-.04.07h.04l.06-.07ZM14.54,4.63h.04-.04ZM14.11,8.73s-.06-.06-.07-.09c-.04-.09-.06-.18-.07-.28v-.3c0-.09,0-.18,0-.26h0c.12-.25.28-.48.47-.69h0c-.17.16-.32.33-.44.52v.03h0v-.04c0-.06-.03-.11-.05-.16-.02-.04-.03-.09-.04-.14-.05-.14-.1-.28-.14-.43-.09-.37-.09-.76,0-1.14.08-.34.28-.64.56-.86.18-.15.4-.23.62-.23.22,0,.37.19.51.39h0v.04h-.11c-.1-.05-.22-.08-.33-.07-.57.16-.99.63-1.09,1.21h0c.09-.36.29-.68.58-.92.19-.2.49-.26.74-.16h.11-.03c-.41.26-.73.64-.91,1.09h0c.21-.47.58-.84,1.04-1.06h0c.06.2.07.42.04.62-.06.34-.2.67-.41.94l-.08.1c-.19.23-.36.49-.49.76h0c.1-.21.22-.4.37-.57.41-.41.66-.96.69-1.54v-.09l.04.08c.07.17.11.35.12.54.01.32-.1.63-.31.87h0c.23-.24.36-.56.35-.89,0-.3-.09-.6-.24-.87h.14c.28.05.52.24.62.51.06.15.08.32.06.49-.03.18-.1.36-.21.52-.11.17-.23.33-.36.47-.13.16-.27.31-.43.47-.31.31-.62.59-.94.85l-.12.11s-.06.05-.09.07c-.02,0-.05,0-.07,0l-.02.1ZM15.66,5.27h-.09c.15.26.22.56.22.86.01.35-.12.69-.37.93h0l-.06-.06h0c.22-.23.33-.54.31-.86,0-.15-.04-.31-.09-.45-.06.56-.31,1.08-.7,1.48-.15.18-.27.37-.37.57h0l-.08-.04h0c.14-.28.31-.54.51-.79l.07-.09c.21-.27.35-.59.41-.92.03-.21.02-.42-.04-.62-.45.22-.81.6-1.01,1.06h0l-.08-.04h0c.18-.46.49-.84.91-1.11h-.04c-.24-.1-.53-.04-.71.16-.29.23-.49.56-.57.92h-.09c.1-.6.53-1.09,1.12-1.25.12,0,.24.02.35.07h0c-.15-.22-.29-.36-.47-.37-.21.01-.42.09-.59.22-.27.21-.46.51-.54.84-.09.37-.09.75,0,1.12.04.15.08.29.14.44.01.04.03.09.04.13l.04.13h0c.13-.2.29-.38.46-.54h0l.06.06h0c-.19.21-.35.44-.47.69.01.09.03.17.03.26v.3c0,.09.03.18.07.27.01.03.03.06.06.07.02.01.05.01.07,0,.03-.01.07-.04.09-.06l.12-.11c.3-.26.62-.54.93-.84.16-.16.3-.31.43-.47.13-.15.24-.31.35-.47.1-.15.17-.33.21-.51.03-.16,0-.32-.06-.47-.11-.26-.35-.44-.62-.48l.04-.04ZM19.02,8.81h0c-.04-.06-.07-.12-.11-.2,0-.02,0-.04,0-.06,0-.02,0-.03,0-.05-.03-.06-.06-.12-.09-.17-.07-.12-.16-.22-.26-.31-.21-.19-.47-.33-.74-.41l-.31-.09h0c-.18-.04-.36-.1-.53-.17-.14-.05-.26-.12-.38-.21-.11-.09-.21-.18-.3-.28h0c.06-.09.12-.19.16-.3h0c.17.1.35.19.54.28h0c-.19-.12-.36-.22-.53-.34h0c0-.06,0-.11.04-.16h0c.47.13.88.43,1.16.83h0c-.27-.44-.69-.76-1.17-.92h0c0-.07,0-.13,0-.2v-.04h0c.95.26,1.75.89,2.22,1.75h0c-.47-.91-1.3-1.59-2.29-1.87h0c-.02-.05-.04-.1-.07-.15v-.03h.14c.39.03.76.16,1.09.36.13.08.24.19.32.31h0c-.08-.13-.19-.25-.32-.34-.33-.22-.71-.36-1.11-.41l-.22-.05h0l-.03-.04v-.17h.06c.17.05.34.08.51.11.18,0,.37,0,.52.04h.22l.17.09c.46.27.84.66,1.09,1.12.23.42.36.89.37,1.37,0,.23-.02.47-.07.69v.04l-.05-.02ZM17.27,5.59c-.15,0-.3,0-.44,0h0c.29.06.57.18.81.35.14.09.25.22.34.36h0l-.08.04h0c-.08-.13-.19-.24-.32-.32-.33-.2-.7-.32-1.08-.36h-.06s.04.08.05.12c.99.28,1.83.96,2.31,1.87h0l-.08.04h0c-.46-.85-1.25-1.48-2.18-1.74,0,.06,0,.12,0,.17.5.16.92.49,1.19.94h0l-.07.04h0c-.27-.4-.67-.69-1.13-.82v.13c.16.12.34.22.52.34h0l-.04.08h0c-.19-.09-.36-.18-.54-.28-.04.1-.09.19-.15.27.08.1.18.19.29.26.11.09.24.16.37.21.17.07.35.13.53.17h0l.31.09c.28.08.54.22.76.41.1.1.18.2.26.32.04.06.07.12.1.18.02.04.04.07.05.11.03.06.06.12.09.17.05-.2.07-.41.06-.62-.02-1.01-.56-1.95-1.44-2.46l-.17-.09h-.26ZM13.56,5.63c-.09-.04-.18-.09-.26-.15-.12-.07-.23-.16-.34-.25h0c-.11-.08-.22-.17-.33-.24-.22-.16-.48-.27-.75-.32-.14-.02-.28-.02-.41,0l-.2.04h-.12l-.19.04h-.05c.16-.2.34-.38.54-.53.67-.49,1.51-.67,2.32-.5h0c.05.1.11.19.17.28.15.23.34.44.55.62h-.04c-.27-.14-.56-.26-.85-.34-.25-.07-.52-.12-.78-.12-.26-.01-.52.01-.77.07h0c.25-.06.51-.08.77-.06.26.02.52.07.77.14.26.08.52.19.76.32h0l-.05.03h0l-.16.11h0l-.11-.04c-.13-.04-.27-.06-.41-.07-.13-.01-.26-.01-.39,0h0c.12-.01.25-.01.37,0h0c.13.02.27.04.39.09h.06s-.03.03-.04.04h0c-.17.18-.29.39-.37.62h0l-.06.21ZM13.92,4.92c-.13-.04-.26-.07-.39-.09h0c-.13-.01-.26-.01-.39,0h0v-.09h0c.14-.01.28-.01.42,0,.14,0,.28.03.41.07l.11.04s.1-.09.16-.12h.03c-.23-.12-.48-.22-.73-.31-.24-.09-.48-.15-.73-.18-.26-.02-.52,0-.77.06h0v-.09h0c.25-.06.51-.1.77-.09.27.01.53.06.79.13.29.08.58.2.84.34h0c-.21-.18-.39-.39-.54-.62-.06-.09-.12-.18-.17-.27-.29-.06-.58-.08-.87-.05-.51.05-1,.24-1.42.54-.2.16-.37.35-.52.56h.32l.21-.04c.14-.02.28-.02.42,0,.27.06.53.17.76.33.11.08.22.16.33.24h0c.11.08.22.17.34.25.08.05.16.1.24.14.08-.23.2-.45.37-.62h0l-.02-.12ZM15.45,5.11c-.07-.14-.17-.27-.28-.37-.12-.13-.29-.19-.46-.16h0s-.06,0-.09,0l-.06-.03c-.36-.31-.65-.7-.84-1.14l-.14-.3h0c-.14-.33-.32-.65-.52-.96l-.04-.06c-.08-.09-.14-.2-.19-.32,0-.02,0-.05,0-.07-.02-.12.02-.24.11-.32.09-.05.2-.07.3-.05.18,0,.35.03.52.06.38.05.73.19,1.05.4.48.37.82.89.99,1.47.08.25.13.52.14.78.03.26-.02.52-.14.75l-.05.07v-.08c.06-.26.06-.52,0-.78-.08-.28-.2-.56-.36-.81h0c.15.27.27.56.34.86.07.28.04.57-.07.83v.05-.06c-.06-.67-.41-1.28-.96-1.66h0c.49.35.81.9.87,1.5v.09l-.07-.07c-.29-.61-.83-1.07-1.49-1.25h0c.71.22,1.26.77,1.49,1.47.01.03.01.07,0,.1h0l-.04.05ZM14,3.49c.64.17,1.17.6,1.48,1.19-.09-.56-.4-1.06-.86-1.39h0l.05-.07h0c.56.38.92.98.99,1.64.09-.24.11-.5.05-.75-.08-.3-.19-.6-.35-.87h0l.07-.04h0c.16.26.28.54.37.82.06.23.07.47.04.7.08-.2.11-.41.08-.62-.03-.27-.09-.53-.19-.79-.16-.59-.5-1.12-.97-1.51-.31-.21-.67-.34-1.04-.39-.17-.03-.34-.05-.52-.06-.1-.02-.19,0-.28.04-.08.07-.12.18-.11.29,0,.02,0,.05,0,.07.05.11.11.22.18.31l.04.06c.2.3.38.63.52.96h0c.04.1.09.2.14.3.19.43.47.81.83,1.12h.05s.05,0,.07,0h0c.18-.01.36.05.49.17.1.1.19.21.26.34,0-.01,0-.03,0-.04-.23-.69-.78-1.23-1.47-1.45h0v-.09l.06.06ZM16.04,3.92c-.02-.16-.06-.31-.11-.46h0c.05-.26.05-.52,0-.77h0c.02.19.01.38-.03.57v.05-.07c-.09-.23-.19-.46-.31-.68h0s.03-.08.04-.11c.13-.35.31-.67.54-.96.23-.29.52-.53.84-.72.07-.05.16-.09.25-.14h0c.07-.04.15-.07.23-.1.09-.04.19-.04.27,0,.05.03.08.08.09.14,0,.07,0,.14,0,.21l-.22,1.62v.16c0,.14-.04.29-.06.43h0c-.29.08-.57.2-.83.36l-.27.21-.07.06.06-.08c.14-.24.24-.43.32-.62.19-.43.33-.87.43-1.32h0c-.11.45-.26.88-.46,1.3-.16.32-.34.63-.54.93v.04l-.15-.03ZM17.14,1.68h0c-.09.46-.24.92-.44,1.35-.07.16-.16.34-.27.54l.2-.14c.26-.17.54-.29.84-.37,0-.14.04-.28.06-.42v-.16l.22-1.62c0-.07,0-.13,0-.2,0-.05-.04-.09-.07-.12-.08-.03-.17-.03-.24,0-.08.02-.15.06-.22.1h0l-.26.14c-.32.19-.6.43-.82.72-.23.28-.41.6-.53.94-.02.04-.03.07-.04.11.12.21.22.43.3.66.03-.17.03-.35,0-.52h.08c.06.26.06.54,0,.8.04.14.08.28.11.42.2-.3.38-.61.53-.94.21-.43.37-.87.47-1.34h0l.09.06Z"/><path class="e" d="M18.79,11.26v-.04c-.08-.9-1.17-1.15-1.87-1.34l-.45-.13v.16s.44.12.48.13c.17.05.33.11.49.18.36.14,1.51.62.93,1.16-.47.33-1.02.55-1.59.62-.58.14-1.17.24-1.76.33l-.29.04c-2.82.34-5.67.36-8.49.07-.78-.1-3.65-.42-3.84-1.39.11-.51.93-.86,2.11-1.11,0-.08,0-.17,0-.25l-.42.11c-.62.23-1.76.46-1.87,1.29v1.53c0,1.42-.03,2.84-.04,4.26v2.58c.02.45.34.84.78.94,4.62,1.07,9.42,1.15,14.07.24l1.07-.24c.45-.1.77-.49.78-.94v-.86c0-1.43,0-2.87-.05-4.3,0-.56-.03-1.11-.05-1.66s.05-.89.01-1.37ZM18.57,15.16c0,1.45-.04,2.89-.03,4.37,0,.3-.2.56-.5.62l-1.04.21c-3.53.79-7.18.91-10.75.34-.71-.11-1.42-.22-2.12-.37-.35-.07-.71-.16-1.05-.24-.3-.05-.52-.32-.52-.62-.03-2.67,0-5.39-.14-8.05.36.5,1.25.73,1.71.88,3.49.87,7.12,1.05,10.69.54,1.09-.12,2.15-.4,3.16-.85.29-.12.53-.31.72-.56-.06,1.26-.1,2.5-.11,3.74Z"/><path class="e" d="M10.59,21.37c-2.56,0-5.12-.29-7.61-.87-.48-.11-.82-.52-.84-1.01v-8.04c0-.11,0-.22,0-.33.07-.76.95-1.04,1.59-1.25l.31-.11.35-.09.19-.05v.11c0,.08,0,.16,0,.24v.06h-.06c-1.25.26-1.94.62-2.05,1.04.2.87,2.8,1.2,3.66,1.31h.12c2.82.29,5.66.27,8.47-.07l.28-.04c.69-.1,1.25-.21,1.75-.33h.11c.53-.09,1.02-.3,1.45-.62.09-.07.14-.18.12-.29-.06-.34-.79-.62-1.04-.75s-.32-.12-.49-.17l-.12-.03q-.42-.1-.42-.17s0-.1,0-.14v-.11h.1l.45.1.12.04c.73.2,1.73.47,1.81,1.37v1.46c0,.56,0,1.11.04,1.66.04,1.39.05,2.84.05,4.31v.86c-.01.49-.36.91-.84,1.01h0l-1.07.24c-2.12.43-4.28.66-6.45.67ZM2.34,11.32v8.17c0,.41.27.76.66.87,4.61,1.06,9.4,1.15,14.05.25l1.07-.25c.41-.09.71-.45.73-.87v-.87c0-1.46,0-2.91-.05-4.3,0-.55,0-1.11-.04-1.66v-.97c-.04,1.1-.07,2.23-.1,3.44h0c0,1.7-.04,3.08,0,4.37,0,.33-.23.61-.55.68l-1.04.27c-3.54.8-7.19.92-10.77.34-.87-.13-1.52-.25-2.14-.38-.42-.09-.75-.17-1.05-.24-.32-.06-.56-.34-.57-.67v-1.81c0-2.06,0-4.17-.12-6.25l-.06-.14ZM2.5,11.66c.09,2,.11,4.05.12,6.03v1.81c.01.26.21.48.47.53.29.07.62.15,1.04.24.62.13,1.25.24,2.12.37,3.56.57,7.2.46,10.72-.34l1.04-.27c.25-.06.43-.28.44-.54v-4.37c0-1.25.06-2.37.11-3.49-.18.18-.39.32-.62.42-1.01.45-2.08.73-3.18.85-3.57.52-7.21.34-10.71-.53-.08-.03-.16-.06-.24-.08-.47-.13-.92-.35-1.31-.64ZM2.34,11.22l.13.19c.4.38.9.65,1.44.77l.23.08c3.47.87,7.08,1.05,10.62.53,1.08-.12,2.13-.4,3.12-.84.27-.12.51-.3.69-.54l.1-.15v-.04c-.07-.8-1.01-1.06-1.7-1.25l-.12-.03-.29-.08h0l.31.08.13.03c.17.06.34.12.5.18.29.12,1.05.43,1.12.85.02.16-.05.33-.17.43-.44.33-.96.55-1.51.62l-.11.03c-.51.12-1.07.23-1.76.33l-.29.04c-2.83.35-5.68.37-8.51.07h-.12c-.98-.12-3.59-.46-3.75-1.44h0s0,.03,0,.04c-.02.03-.04.06-.06.09ZM4.47,9.83l-.32.09-.31.11c-.62.19-1.36.44-1.48,1.05.12-.49.81-.86,2.11-1.14,0-.03,0-.07,0-.1Z"/></g></g><text class="d" transform="translate(31.75 8.45)"><tspan class="j" x="0" y="0">W</tspan><tspan class="i" x="11.92" y="0">ORKSHOP</tspan></text><text class="c" transform="translate(31.65 21.34)"><tspan x="0" y="0">Do ZERO aos R$ 5</tspan><tspan class="l" x="58.82" y="0">.</tspan><tspan x="60.24" y="0">000</tspan></text><path class="f" d="M32.12,12.33h71.89"/></svg>