<?xml version="1.0" encoding="UTF-8"?><svg id="a" xmlns="http://www.w3.org/2000/svg" viewBox="0 0 59.51 96.11"><path d="M48.06,22.88h9.15c1.26,0,2.29-1.03,2.29-2.29V2.29c0-1.26-1.03-2.29-2.29-2.29h-13.73c-13.88,0-25.17,11.29-25.17,25.17v11.63H2.29c-1.26,0-2.29,1.03-2.29,2.29v18.12c0,1.26,1.03,2.29,2.29,2.29h14.43v34.33c0,1.26,1.03,2.29,2.29,2.29h19.11c1.26,0,2.29-1.03,2.29-2.29v-34.33h12.04c1.04,0,1.96-.7,2.22-1.72l4.77-18.31c.18-.69.04-1.42-.4-1.98-.43-.56-1.1-.89-1.81-.89h-16.02v-6.87c0-3.79,3.08-6.87,6.87-6.87h-.01ZM38.9,41.19h15.34l-3.58,13.73h-12.56c-1.26,0-2.29,1.03-2.29,2.29v34.33h-14.53v-34.33c0-1.26-1.03-2.29-2.29-2.29H4.57v-13.55h16.02c1.26,0,2.29-1.03,2.29-2.29v-13.91c0-11.35,9.23-20.6,20.6-20.6h11.44v13.73h-6.87c-6.31,0-11.44,5.14-11.44,11.44v9.15c0,1.26,1.03,2.29,2.29,2.29h0Z"/></svg>