<?xml version="1.0" encoding="UTF-8"?><svg id="a" xmlns="http://www.w3.org/2000/svg" viewBox="0 0 91.81 91.81"><path d="M72.13,0H19.67C8.82,0,0,8.82,0,19.67v52.46c0,10.85,8.82,19.67,19.67,19.67h52.46c10.85,0,19.67-8.82,19.67-19.67V19.67c0-10.85-8.82-19.67-19.67-19.67ZM85.25,72.13c0,7.23-5.88,13.12-13.12,13.12H19.67c-7.23,0-13.12-5.88-13.12-13.12V19.67c0-7.23,5.88-13.12,13.12-13.12h52.46c7.23,0,13.12,5.88,13.12,13.12v52.46ZM45.9,19.67c-14.46,0-26.23,11.77-26.23,26.23s11.77,26.23,26.23,26.23,26.23-11.77,26.23-26.23-11.77-26.23-26.23-26.23ZM45.9,65.58c-10.85,0-19.67-8.82-19.67-19.67s8.82-19.67,19.67-19.67,19.67,8.82,19.67,19.67-8.82,19.67-19.67,19.67ZM74.46,17.34c.59.62.95,1.48.95,2.33s-.36,1.71-.95,2.33c-.62.59-1.48.95-2.33.95s-1.71-.36-2.33-.95c-.59-.62-.95-1.48-.95-2.33s.36-1.71.95-2.33c1.21-1.18,3.41-1.21,4.66,0h0Z"/></svg>