<?xml version="1.0" encoding="UTF-8"?><svg id="a" xmlns="http://www.w3.org/2000/svg" viewBox="0 0 318.9 318.9"><path d="M61.96.21l193.64-.21c33.24,3.79,59.86,30.76,63.25,64l.04,190.15c-3,33.81-30.32,61.41-64.04,64.71l-190.15.04c-33.58-2.99-60.83-29.9-64.71-63.29L.08,62.59C4.15,30.46,29.79,4.46,61.96.21ZM260.28,31.61c-25.18,3.91-21.36,46.1,7.23,43.15,28.13-2.9,24.96-48.15-7.23-43.15ZM150.29,56.35c-70.7,5.58-114.32,81.35-85.08,146.01,32.44,71.72,131.59,81.78,177.92,17.95,52.29-72.04-4.55-170.92-92.84-163.95Z"/><path d="M151.42,101.64c42.25-4.48,75.48,33.08,63.99,74.47-12.42,44.75-71.28,57.1-101.23,21.49-29.24-34.76-8.34-91.12,37.24-95.96Z"/></svg>