<?xml version="1.0" encoding="UTF-8"?><svg id="a" xmlns="http://www.w3.org/2000/svg" viewBox="0 0 84.3 96"><path d="M60.8,0c.8.38,1.73.93,1.97,1.87.34,1.3.22,3.25.52,4.73,1.4,6.84,7.29,12.82,14.19,14.12,2.73.52,6.23-.48,6.58,3.36s.32,10.92,0,14.63c-.13,1.46-.83,2.78-2.4,3.04-1.07.18-3.3-.03-4.45-.14-5.02-.51-9.84-2.15-14.34-4.31v29.71c-1.11,13.75-11.44,25.53-24.94,28.31l-4.13.65c-1.53-.08-3.17.11-4.69,0C12.3,94.75-.85,79.74.04,62.88c.78-14.72,12.43-27.63,27.13-29.49,2.87-.36,6.8-1.12,7.19,2.7.36,3.55.32,11.03,0,14.62s-2.85,2.79-5.41,3.4c-8.53,2.03-11.15,13.26-4.24,18.8,6.87,5.51,16.9.9,17.53-7.77.1-21.11-.24-42.29.17-63.37.34-.94,1.06-1.32,1.88-1.77h16.5ZM57.43,5.62h-9.56v60.45c0,6.58-6.58,13.08-12.75,14.43-19.2,4.21-28.03-22.7-10.57-30.81,1.36-.63,2.84-.93,4.19-1.43v-9.28c-20.94,2.08-30.6,27.44-16.22,43.11,14.98,16.33,43.15,6.69,44.72-15.28.8-11.16-.58-23.24,0-34.49.19-2.14,1.59-3.33,3.77-2.82.85.2,3.56,2.25,4.67,2.83,3.89,2.04,8.35,3.34,12.75,3.65v-9.28c-.63-.4-1.62-.37-2.44-.56-9.97-2.38-17.23-10.33-18.56-20.53Z"/></svg>