<?xml version="1.0" encoding="UTF-8"?><svg id="a" xmlns="http://www.w3.org/2000/svg" viewBox="0 0 96.12 69.42"><path d="M3.71,18.38l-3.2-.15,3.2.15ZM17.13,4.31l-.24-3.19.24,3.19ZM3.72,50.86l3.2-.15-3.2.15ZM16.89,64.88l.29-3.19h0l-.29,3.19ZM79.17,64.89l.29,3.19h0l-.29-3.19ZM92.38,50.79l-3.2-.15h0l3.2.15ZM92.39,18.44l-3.2.15h0l3.2-.15ZM78.93,4.3l-.24,3.19.24-3.19ZM61.95,34.71l1.62,2.76c.98-.58,1.58-1.63,1.58-2.76s-.6-2.19-1.58-2.76l-1.62,2.76ZM37.38,20.29l1.62-2.76c-.99-.58-2.22-.59-3.21-.02-1,.57-1.61,1.63-1.61,2.78h3.2ZM37.38,49.13h-3.2c0,1.15.62,2.21,1.61,2.78,1,.57,2.22.56,3.21-.02l-1.62-2.76ZM6.91,18.53c.28-5.91,4.71-10.59,10.46-11.03l-.49-6.39C7.76,1.81.93,9.23.51,18.22l6.4.3ZM6.41,34.51c0-4.28.23-10.43.5-15.98l-6.4-.3c-.26,5.56-.51,11.85-.51,16.29h6.41ZM6.92,50.71c-.27-5.61-.51-11.86-.51-16.19H0c0,4.5.25,10.89.52,16.5l6.4-.31ZM17.18,61.69c-5.66-.51-9.98-5.14-10.26-10.99l-6.4.31c.42,8.87,7.08,16.26,16.09,17.06l.57-6.38ZM48.06,63.01c-12.86,0-23.42-.65-30.88-1.32l-.57,6.38c7.63.68,18.38,1.35,31.46,1.35v-6.41ZM78.88,61.7c-7.46.67-18,1.32-30.82,1.32v6.41c13.03,0,23.77-.66,31.39-1.34l-.57-6.38ZM89.18,50.64c-.28,5.88-4.61,10.55-10.3,11.06l.57,6.38c9.05-.81,15.71-8.24,16.13-17.14l-6.4-.3ZM89.72,34.51c0,3.73-.26,10.21-.54,16.13l6.4.3c.28-5.9.54-12.53.54-16.43h-6.41ZM89.19,18.59c.27,5.86.53,12.24.53,15.92h6.41c0-3.86-.26-10.38-.53-16.22l-6.4.3ZM78.69,7.5c5.78.44,10.22,5.15,10.5,11.09l6.4-.3c-.42-9.02-7.25-16.49-16.42-17.18l-.49,6.39ZM48.06,6.41c12.91,0,23.28.53,30.63,1.09l.49-6.39c-7.49-.57-18.03-1.11-31.11-1.11v6.41ZM17.37,7.5c7.35-.56,17.75-1.09,30.69-1.09V0c-13.12,0-23.68.54-31.18,1.11l.49,6.39ZM63.57,31.95l-24.56-14.42-3.24,5.53,24.56,14.42,3.24-5.53ZM39,51.89l24.56-14.42-3.24-5.53-24.56,14.42,3.24,5.53ZM34.18,20.29v28.84h6.41v-28.84h-6.41Z"/></svg>