<?xml version="1.0" encoding="UTF-8"?><svg id="a" xmlns="http://www.w3.org/2000/svg" viewBox="0 0 639.54 447.68"><path d="M307.35,0l140.72,2.21c2.72-.13,5.3,1.25,7.94,1.37,90.78,4.1,160.7-8.18,176.12,100.67,10.14,71.61,9.61,166.1,0,237.82-13.34,99.62-64.79,97.21-152.19,101.98-97.05,5.29-198.55,4.34-295.42.03-65.42-2.91-152.95,6.9-172.74-72.12C-2.44,315.19-.78,235.84,1.55,177.25,4.59,100.65-.6,21.81,92.9,9.11,163.23-.44,236.61,3.07,307.35,0ZM255.73,318.98l164.99-95.15-164.99-95.15v190.29Z"/></svg>